# xmcd
#
# Track frame offsets: 
#        150
#        21286
#        42573
#        66501
#        88435
#        107177
#        128855
#        157710
#        177156
#        191203
#        219383
#
# Disc length: 3328 seconds
#
# Revision: 2
# Processed by: cddbd v1.5.2PL0 Copyright (c) Steve Scherf et al.
# Submitted via: ExactAudioCopy v0.99pb5
#
DISCID=a20cfe0b
DTITLE=Alain Daniel - Vestigios
DYEAR=2008
DGENRE=Salsa
TTITLE0=Esto Si Sabe A Cuba (Cha Cha Cha)
TTITLE1=Un Amigo En Madrid (Salsa)
TTITLE2=La Miky (Salsa)
TTITLE3=Marginal (Fusion)
TTITLE4=Qué Le Pasa A Esa Mujer (Salsa)
TTITLE5=Se Pegan (Timba)
TTITLE6=Un Loco Enamora'o (Timba)
TTITLE7=Solo Dime (Balada)
TTITLE8=Bendita Locura (Salsa)
TTITLE9=Le Encanta La Calle (Timba)
TTITLE10=Aparentemente Ideal (Timba)
EXTD=YEAR: 2008
EXTT0=
EXTT1=
EXTT2=
EXTT3=
EXTT4=
EXTT5=
EXTT6=
EXTT7=
EXTT8=
EXTT9=
EXTT10=
PLAYORDER=
